<?xml version="1.0" encoding="UTF-8" standalone="no"?>
<svg width="42px" height="42px" viewBox="0 0 42 42" version="1.1" xmlns="http://www.w3.org/2000/svg" xmlns:xlink="http://www.w3.org/1999/xlink" xmlns:sketch="http://www.bohemiancoding.com/sketch/ns">
    <!-- Generator: Sketch 3.4.2 (15857) - http://www.bohemiancoding.com/sketch -->
    <title>Imported Layers + Imported Layers</title>
    <desc>Created with Sketch.</desc>
    <defs></defs>
    <g id="Page-1" stroke="none" stroke-width="1" fill="none" fill-rule="evenodd" sketch:type="MSPage">
        <g id="Desktopv3" sketch:type="MSArtboardGroup" transform="translate(-89.000000, -5550.000000)">
            <g id="Brazil-story" sketch:type="MSLayerGroup" transform="translate(0.000000, 4957.000000)">
                <g id="d---card-share-icons" transform="translate(30.000000, 594.000000)" sketch:type="MSShapeGroup">
                    <g id="Imported-Layers-+-Imported-Layers" transform="translate(60.189702, 0.000000)">
                        <ellipse id="Imported-Layers" stroke="#FFFFFF" stroke-width="2" opacity="0.6" cx="19.817911" cy="19.817911" rx="19.817911" ry="19.817911"></ellipse>
                        <path d="M17.846537,16.9088887 L16.2303609,16.9088887 L16.2303609,19.6665874 L17.846537,19.6665874 L17.846537,27.8670317 L21.1564894,27.8670317 L21.1564894,19.6665874 L23.3852603,19.6665874 C23.3852603,19.6665874 23.5889612,18.3443298 23.6911847,16.9012412 L21.1699202,16.9012412 L21.1699202,15.0123018 C21.1699202,14.7293432 21.5340448,14.3484963 21.8869771,14.3484963 L23.692677,14.3484963 L23.692677,11.4791438 L21.2430436,11.4791438 C17.7629674,11.4791438 17.846537,14.2429605 17.846537,14.6536327 L17.846537,16.9088887 Z" id="Imported-Layers" fill-opacity="0.9" fill="#FFFFFF"></path>
                    </g>
                </g>
            </g>
        </g>
    </g>
</svg>