<?xml version="1.0" encoding="utf-8"?>
<!-- Generated by IcoMoon.io -->
<!DOCTYPE svg PUBLIC "-//W3C//DTD SVG 1.1//EN" "http://www.w3.org/Graphics/SVG/1.1/DTD/svg11.dtd">
<svg version="1.1" xmlns="http://www.w3.org/2000/svg" xmlns:xlink="http://www.w3.org/1999/xlink" width="384" height="64" viewBox="0 0 384 64">
<svg id="icon-facebook-iconsa" width="64" height="64" viewBox="0 0 64 64" x="0" y="0">
<path fill="rgb(153, 153, 153)" d="M27.242 26.602h-3.156v5.385h3.156v16.012h6.462v-16.014h4.352c0 0 0.398-2.582 0.598-5.399h-4.922v-3.689c0-0.553 0.71-1.296 1.4-1.296h3.526v-5.602h-4.783c-6.795 0-6.633 5.396-6.633 6.199v4.404z"></path>
<path fill="rgba(153, 153, 153, 0.6)" d="M32 64c-17.644 0-32-14.356-32-32s14.356-32 32-32 32 14.356 32 32-14.356 32-32 32zM32 3.047c-15.964 0-28.953 12.989-28.953 28.953s12.989 28.953 28.953 28.953 28.953-12.989 28.953-28.953-12.989-28.953-28.953-28.953z"></path>
</svg>
<svg id="icon-facebook-iconsb" width="64" height="64" viewBox="0 0 64 64" x="80" y="0">
<path fill="rgb(153, 153, 153)" d="M27.242 22.199c0-0.802-0.164-6.199 6.633-6.199h4.783v5.602h-3.526c-0.688 0-1.4 0.743-1.4 1.296v3.689h4.923c-0.2 2.818-0.598 5.399-0.598 5.399h-4.352v16.014h-6.462v-16.014h-3.156v-5.385h3.156v-4.402zM64 32c0-17.644-14.356-32-32-32s-32 14.356-32 32 14.356 32 32 32 32-14.356 32-32z"></path>
</svg>
<svg id="icon-twitter-icon-a" width="64" height="64" viewBox="0 0 64 64" x="160" y="0">
<path fill="rgb(153, 153, 153)" d="M47.644 22.16c-1.179 0.514-2.441 0.86-3.77 1.018 1.355-0.799 2.396-2.064 2.888-3.567-1.269 0.738-2.675 1.275-4.169 1.564-1.197-1.252-2.903-2.035-4.794-2.035-3.625 0-6.565 2.886-6.565 6.447 0 0.504 0.058 0.997 0.17 1.469-5.457-0.268-10.296-2.836-13.534-6.737-0.565 0.951-0.891 2.059-0.891 3.242 0 2.238 1.161 4.208 2.922 5.368-1.075-0.034-2.089-0.326-2.974-0.807-0.002 0.026-0.002 0.055-0.002 0.081 0 3.127 2.262 5.732 5.27 6.323-0.551 0.147-1.133 0.225-1.73 0.225-0.425 0-0.834-0.037-1.235-0.114 0.837 2.56 3.261 4.424 6.135 4.477-2.246 1.73-5.079 2.761-8.153 2.761-0.531 0-1.054-0.031-1.567-0.090 2.907 1.829 6.358 2.896 10.065 2.896 12.079 0 18.68-9.825 18.68-18.343 0-0.283-0.005-0.56-0.020-0.837 1.282-0.91 2.393-2.048 3.273-3.34z"></path>
<path fill="rgba(153, 153, 153, 0.6)" d="M32 64c-17.644 0-32-14.356-32-32s14.356-32 32-32 32 14.356 32 32-14.356 32-32 32zM32 3.047c-15.964 0-28.953 12.989-28.953 28.953s12.989 28.953 28.953 28.953 28.953-12.989 28.953-28.953-12.989-28.953-28.953-28.953z"></path>
</svg>
<svg id="icon-twitter-icon-b" width="64" height="64" viewBox="0 0 64 64" x="240" y="0">
<path fill="rgb(153, 153, 153)" d="M44.371 25.5c0.016 0.276 0.020 0.553 0.020 0.837 0 8.518-6.603 18.343-18.68 18.343-3.707 0-7.16-1.068-10.065-2.896 0.514 0.059 1.036 0.090 1.567 0.090 3.074 0 5.907-1.032 8.153-2.761-2.874-0.052-5.298-1.917-6.135-4.477 0.403 0.077 0.81 0.114 1.235 0.114 0.596 0 1.179-0.080 1.73-0.225-3.008-0.592-5.27-3.198-5.27-6.323 0-0.026 0-0.053 0.002-0.081 0.885 0.481 1.898 0.773 2.974 0.807-1.761-1.16-2.922-3.13-2.922-5.368 0-1.183 0.326-2.291 0.891-3.242 3.237 3.901 8.076 6.469 13.534 6.737-0.112-0.473-0.17-0.965-0.17-1.469 0-3.561 2.941-6.447 6.565-6.447 1.89 0 3.596 0.784 4.794 2.035 1.494-0.289 2.9-0.826 4.169-1.564-0.492 1.505-1.533 2.768-2.888 3.567 1.327-0.156 2.591-0.504 3.77-1.018-0.88 1.292-1.992 2.43-3.273 3.34zM64 32c0-17.644-14.356-32-32-32s-32 14.356-32 32 14.356 32 32 32 32-14.356 32-32z"></path>
</svg>
</svg>
