<?xml version="1.0" encoding="UTF-8" standalone="no"?>
<svg width="42px" height="42px" viewBox="0 0 42 42" version="1.1" xmlns="http://www.w3.org/2000/svg" xmlns:xlink="http://www.w3.org/1999/xlink" xmlns:sketch="http://www.bohemiancoding.com/sketch/ns">
    <!-- Generator: Sketch 3.4.2 (15857) - http://www.bohemiancoding.com/sketch -->
    <title>twitter icon + twitter icon</title>
    <desc>Created with Sketch.</desc>
    <defs></defs>
    <g id="Page-1" stroke="none" stroke-width="1" fill="none" fill-rule="evenodd" sketch:type="MSPage">
        <g id="Desktopv3" sketch:type="MSArtboardGroup" transform="translate(-29.000000, -5550.000000)">
            <g id="Brazil-story" sketch:type="MSLayerGroup" transform="translate(0.000000, 4957.000000)">
                <g id="d---card-share-icons" transform="translate(30.000000, 594.000000)" sketch:type="MSShapeGroup">
                    <g id="twitter-icon-+-twitter-icon" transform="translate(0.000000, 0.059305)">
                        <path d="M27.6663344,14.4795702 C28.4678844,13.980955 29.0841343,13.1917798 29.3748343,12.2528408 C28.6242844,12.7137908 27.7921344,13.0491902 26.9081345,13.229445 C26.2000846,12.4474442 25.1902846,11.9586937 24.0716847,11.9586937 C21.9271349,11.9586937 20.1871851,13.7603447 20.1871851,15.9834869 C20.1871851,16.2982602 20.2211851,16.6058591 20.2874851,16.900903 C17.0583354,16.7332033 14.1955356,15.1306397 12.2796358,12.6949582 C11.9455858,13.2886332 11.7526358,13.9800582 11.7526358,14.7190131 C11.7526358,16.1162118 12.4394358,17.3466076 13.4815357,18.0703171 C12.8448857,18.0487941 12.2456358,17.8667457 11.7220358,17.5663211 C11.7211858,17.5833601 11.7211858,17.6003991 11.7211858,17.6165414 C11.7211858,19.5679562 13.0590857,21.1947332 14.8389856,21.5642106 C14.5125856,21.6556832 14.1683356,21.7050066 13.8155856,21.7050066 C13.5639857,21.7050066 13.3225857,21.6816901 13.0845857,21.6341602 C13.5792857,23.2322399 15.0140855,24.3962732 16.7140854,24.4285577 C15.3846855,25.5082927 13.7084856,26.1521879 11.8894858,26.1521879 C11.5758358,26.1521879 11.2664359,26.1324585 10.9621359,26.0956901 C12.6816857,27.2373037 14.7242356,27.9036186 16.9180854,27.9036186 C24.0648847,27.9036186 27.9714844,21.7704723 27.9714844,16.452508 C27.9714844,16.2758404 27.9689344,16.10276 27.9595844,15.9305763 C28.7177843,15.3620115 29.3756843,14.6517539 29.8967342,13.8446429 C29.1997343,14.1647969 28.4517344,14.3818201 27.6663344,14.4795702 Z" id="twitter-icon" fill-opacity="0.9" fill="#FFFFFF"></path>
                        <ellipse id="twitter-icon" stroke="#FFFFFF" stroke-width="2" opacity="0.6" cx="19.9311562" cy="19.9311562" rx="19.9311562" ry="19.9311562"></ellipse>
                    </g>
                </g>
            </g>
        </g>
    </g>
</svg>